<svg version="1.1" id="Layer_1" xmlns="http://www.w3.org/2000/svg" xmlns:xlink="http://www.w3.org/1999/xlink" x="0px" y="0px"
	 width="100%" viewBox="0 0 512 512" enable-background="new 0 0 512 512" xml:space="preserve">
<path fill="#000000" opacity="1.000000" stroke="none" 
	d="
M469.911774,271.897125 
	C411.488647,330.385223 353.309509,388.617584 295.130432,446.850006 
	C285.002655,456.987061 274.889648,467.138947 264.741669,477.255737 
	C259.005890,482.973907 255.054321,483.026672 249.414658,477.389008 
	C182.476715,410.474701 115.510208,343.588928 48.649586,276.597473 
	C26.074701,253.978424 12.967707,226.631927 9.612568,194.833252 
	C5.538041,156.216476 10.821837,119.474785 34.713699,87.576538 
	C61.040348,52.427582 96.144142,33.473064 140.611694,32.588707 
	C178.311539,31.838943 210.295547,44.989353 237.106827,71.116982 
	C243.538818,77.384987 249.363907,84.275787 255.920563,90.455719 
	C258.704956,89.777802 259.630951,88.000336 260.884827,86.761734 
	C273.557281,74.243538 285.712738,61.176517 301.148376,51.791687 
	C326.060669,36.645096 353.110565,30.359398 381.980652,32.864109 
	C427.077850,36.776657 461.426727,58.815964 485.432343,96.831764 
	C499.280792,118.762489 504.861725,143.177353 505.459320,169.041946 
	C506.054626,194.809998 502.149231,219.456360 490.310089,242.564529 
	C484.886139,253.151276 478.088867,262.791260 469.911774,271.897125 
M356.380615,362.880066 
	C388.662781,330.595093 420.949219,298.314423 453.223480,266.021545 
	C459.839233,259.401947 465.719391,252.192551 470.789307,244.304459 
	C490.048462,214.339874 492.241058,180.993668 487.012939,147.455032 
	C478.625275,93.647163 436.797119,55.002316 383.273834,49.242046 
	C347.175232,45.357048 315.987366,56.701084 289.584900,81.332191 
	C281.060638,89.284584 273.051727,97.787964 264.762421,105.994186 
	C258.974701,111.723877 255.154129,111.765984 249.430176,106.121193 
	C241.362457,98.165062 233.540924,89.951759 225.311081,82.168877 
	C196.018494,54.467083 161.291962,42.972477 121.627808,50.596207 
	C79.053093,58.779362 49.471252,83.889572 33.052010,124.137344 
	C25.794077,141.928391 25.176868,160.639908 25.215012,179.580368 
	C25.282925,213.304977 36.897491,242.043167 60.666302,265.836456 
	C124.614380,329.850342 188.629654,393.797119 252.641495,457.747284 
	C254.011108,459.115570 255.128571,460.920563 258.055389,461.437500 
	C290.478638,428.936554 323.179047,396.157776 356.380615,362.880066 
z"/>
<path fill="#000000" opacity="1.000000" stroke="none" 
	d="
M232.998596,288.346130 
	C203.701492,289.109100 179.206497,279.645660 160.444977,257.326050 
	C147.456512,241.874298 141.085678,223.761490 140.683807,203.596771 
	C140.531174,195.937943 140.576523,188.271896 140.702057,180.611954 
	C140.785324,175.531982 143.322784,171.877609 147.800034,171.871445 
	C163.584641,171.849701 179.477264,170.137573 195.129166,173.170914 
	C221.707565,178.321793 241.649826,192.884216 254.920425,216.523071 
	C255.401718,217.380402 255.967560,218.190277 256.465363,218.977005 
	C258.637024,218.881714 258.750275,217.047150 259.439270,215.872543 
	C276.359619,187.026825 301.652039,172.456696 334.951508,171.672577 
	C344.273865,171.453064 353.606140,171.612106 362.933502,171.660355 
	C370.404846,171.698990 373.392151,174.517517 373.316101,181.832031 
	C373.167755,196.097549 374.215942,210.385727 370.497528,224.497055 
	C361.658142,258.042603 333.274475,283.043884 298.757782,287.526306 
	C289.436584,288.736755 280.132599,288.298767 270.828522,288.232788 
	C266.341248,288.200989 265.050171,289.697906 265.234985,294.013550 
	C265.541138,301.162659 265.332581,308.334564 265.309052,315.496735 
	C265.286804,322.261932 261.736511,327.123016 256.906921,327.066711 
	C252.043060,327.010040 248.734970,322.304382 248.702606,315.307434 
	C248.670258,308.311859 248.382095,301.298126 248.788681,294.326355 
	C249.081268,289.309052 247.144836,287.824402 242.484482,288.293640 
	C239.516769,288.592499 236.494308,288.347443 232.998596,288.346130 
M158.707809,219.888672 
	C168.544891,255.508331 202.336517,276.330170 234.067398,271.020691 
	C230.103928,267.505249 226.429703,264.216766 222.723495,260.964722 
	C212.087372,251.631897 201.367218,242.393295 190.822250,232.958755 
	C184.948837,227.703827 186.314026,220.242920 193.309479,218.150345 
	C197.083801,217.021332 199.679749,219.210480 202.205322,221.423737 
	C215.349884,232.942856 228.450943,244.511703 241.619278,256.003510 
	C243.635544,257.763092 245.422348,259.998901 248.420914,260.784058 
	C249.277222,253.651184 248.569885,247.028580 246.866577,240.590836 
	C240.263992,215.636017 224.421021,199.232040 200.171005,190.742081 
	C187.054901,186.150131 173.495758,188.481003 160.109802,188.138336 
	C157.668365,188.075836 157.202454,189.877960 157.161270,191.900574 
	C156.975800,201.008835 156.098221,210.149490 158.707809,219.888672 
M285.772797,244.271790 
	C294.794678,236.380630 303.763031,228.427048 312.859833,220.623169 
	C317.826538,216.362335 323.232788,217.350708 326.189209,222.739471 
	C328.565521,227.070908 326.301056,230.105789 323.304504,232.766220 
	C313.096283,241.829346 302.799805,250.793045 292.550354,259.809814 
	C288.393555,263.466644 284.270905,267.162262 279.459839,271.438263 
	C291.700165,272.566345 302.558624,271.665863 312.920197,267.458221 
	C343.522369,255.031387 361.017822,225.554703 356.861053,191.331268 
	C356.579681,189.014801 355.476471,188.140182 353.322754,188.092163 
	C345.509521,187.917969 337.608704,186.878494 329.899597,187.683960 
	C301.727081,190.627548 281.492493,205.052475 270.159943,231.230225 
	C266.110107,240.585175 264.553436,250.455078 265.657745,261.800629 
	C272.734619,255.613525 278.972992,250.159500 285.772797,244.271790 
z"/>
</svg>