<svg version="1.1" id="Layer_1" xmlns="http://www.w3.org/2000/svg" xmlns:xlink="http://www.w3.org/1999/xlink" x="0px" y="0px"
	 width="100%" viewBox="0 0 1266 847" enable-background="new 0 0 1266 847" xml:space="preserve">
<path fill="#FFFFFF" opacity="1.000000" stroke="none" 
	d="
M800.000000,848.000000 
	C533.364746,848.000000 267.229523,848.000000 1.047142,848.000000 
	C1.047142,565.731445 1.047142,283.462860 1.047142,1.097148 
	C422.885406,1.097148 844.770813,1.097148 1266.828125,1.097148 
	C1266.828125,283.333252 1266.828125,565.666626 1266.828125,848.000000 
	C1111.462524,848.000000 955.981262,848.000000 800.000000,848.000000 
M584.953796,807.536194 
	C609.258789,797.144775 633.119873,785.715332 654.933044,770.790955 
	C672.091492,759.051453 688.768066,746.387024 704.394287,732.690857 
	C720.011108,719.002747 734.056946,703.522339 749.003967,688.615723 
	C747.474670,687.169128 746.960205,686.533569 746.313110,686.092468 
	C733.778381,677.548096 724.030640,666.320374 717.596130,652.806274 
	C710.344238,637.575684 707.436157,621.424316 708.752869,604.170349 
	C710.477112,581.576599 719.180725,562.563049 734.861633,546.860291 
	C748.255371,533.447815 764.916260,525.235657 783.616760,522.222534 
	C792.742493,520.752197 802.201843,521.032715 811.505920,521.100586 
	C817.835693,521.146790 824.158081,522.198975 830.521606,522.804932 
	C836.921021,498.268463 840.371765,473.423248 841.754517,448.418762 
	C842.687195,431.553436 841.452209,414.558655 840.977844,397.627655 
	C840.429382,378.046509 836.950134,358.863159 833.126892,339.692749 
	C827.312256,310.536743 818.058716,282.509705 805.714478,255.561691 
	C795.331299,232.894730 783.679749,210.782120 768.786621,190.710556 
	C756.954468,174.764267 744.945984,158.769272 731.366638,144.348862 
	C717.465393,129.586563 701.837646,116.389473 686.453674,103.099907 
	C668.918579,87.952026 649.333252,75.608452 629.004456,64.608467 
	C595.909424,46.700573 561.243530,32.858986 524.370972,24.540237 
	C501.115936,19.293718 477.671753,15.225047 453.960205,14.273797 
	C429.338196,13.286022 404.565277,12.828424 380.049225,16.978811 
	C365.538696,19.435345 350.865723,21.153925 336.531006,24.382082 
	C305.480347,31.374655 275.511505,41.940437 247.298523,56.604530 
	C228.752594,66.244034 210.952820,77.474068 193.493439,89.012497 
	C167.780838,106.005280 145.231186,126.746460 124.643021,149.718781 
	C109.256355,166.887253 95.344376,185.077301 82.951118,204.498444 
	C66.590828,230.136185 53.206081,257.209320 42.964069,285.837463 
	C34.913834,308.339203 28.288248,331.232483 24.966980,354.950623 
	C22.761839,370.698181 19.716806,386.471832 19.307396,402.292267 
	C18.746531,423.965149 19.495781,445.761383 21.255587,467.376740 
	C22.672234,484.777161 25.548552,502.181000 29.326645,519.240234 
	C36.169243,550.136597 46.656925,579.992981 61.270599,608.045532 
	C71.380432,627.452332 82.820068,646.312012 95.257477,664.316467 
	C105.961693,679.811890 118.562752,694.063232 131.013382,708.261047 
	C138.428497,716.716675 146.782043,724.471985 155.408432,731.714600 
	C169.096466,743.206909 182.982727,754.539001 197.479141,764.974792 
	C219.339050,780.711426 242.897583,793.758606 267.884705,803.791504 
	C285.886200,811.019592 304.301758,817.415955 322.926605,822.827332 
	C337.301514,827.003845 352.205231,829.601990 367.026245,831.933167 
	C381.764954,834.251404 396.662231,836.295715 411.546112,836.798401 
	C439.479034,837.741760 467.458252,837.475281 495.063568,831.992310 
	C509.796478,829.066162 524.681152,826.646301 539.149719,822.717651 
	C554.403259,818.575806 569.242676,812.908813 584.953796,807.536194 
M1167.000000,578.965576 
	C1166.914673,580.172485 1166.829224,581.379456 1166.715942,582.980896 
	C1148.054077,563.493469 1110.241089,567.877441 1093.506592,582.691772 
	C1068.246216,605.053711 1069.038208,646.377380 1088.480713,668.009766 
	C1105.633667,687.094482 1144.487793,695.373962 1169.013916,671.076599 
	C1169.013916,675.897156 1169.013916,680.273315 1169.013916,684.998535 
	C1176.779175,684.998535 1184.074951,684.927368 1191.368286,685.033569 
	C1194.293823,685.076172 1195.102051,683.706421 1195.032104,681.044861 
	C1194.913696,676.548950 1195.000000,672.047607 1195.000000,667.548584 
	C1195.000000,622.558105 1194.943970,577.567444 1195.089355,532.577454 
	C1195.103516,528.228760 1193.964233,526.632690 1189.486938,526.911560 
	C1183.677368,527.273438 1177.816040,527.229980 1172.000244,526.921265 
	C1167.949829,526.706238 1166.870361,528.180969 1166.920166,532.089844 
	C1167.115234,547.417419 1167.000000,562.749023 1167.000000,578.965576 
M847.995239,649.494019 
	C846.244385,647.326538 844.493469,645.159058 842.716248,642.959045 
	C818.471252,669.410156 782.569214,665.194824 764.390564,646.649719 
	C745.331482,627.206238 745.309631,596.701050 761.520447,577.028137 
	C778.316223,556.645508 815.535583,549.479126 842.126282,576.061768 
	C848.204224,570.393066 854.280640,564.725769 861.173462,558.296997 
	C854.359192,553.197266 848.589600,547.976807 842.014282,544.135254 
	C825.286133,534.362000 807.099976,532.425171 788.037903,534.897583 
	C766.684448,537.667114 748.969482,547.334473 736.580627,564.375305 
	C718.542297,589.186951 716.383301,617.020264 729.498962,644.419556 
	C742.977234,672.576416 767.852966,685.311462 798.271118,686.722290 
	C807.861389,687.167053 817.862061,685.288635 827.214294,682.765930 
	C840.323853,679.229614 851.601746,672.030334 858.873779,662.479797 
	C855.240295,658.109314 851.868347,654.053467 847.995239,649.494019 
M882.433289,677.063354 
	C892.251526,684.733643 903.646118,686.588989 915.671448,685.988586 
	C927.656189,685.390137 938.535461,682.135071 947.000549,672.299805 
	C947.000549,675.444946 947.092773,678.233459 946.973938,681.012817 
	C946.861450,683.642029 947.637329,685.087097 950.597778,685.033447 
	C956.926880,684.918579 963.270203,685.186340 969.581421,684.831543 
	C970.782471,684.763977 972.858582,682.543213 972.851746,681.325256 
	C972.716553,657.075500 972.926697,632.800293 971.829651,608.586304 
	C970.803040,585.927673 953.931763,572.005676 932.318726,570.199341 
	C919.747742,569.148682 906.895325,569.015198 894.593994,573.053955 
	C886.815674,575.607788 879.370667,578.941589 873.060181,584.290710 
	C876.206116,590.075378 879.191772,595.289124 881.885742,600.649536 
	C883.026978,602.920227 884.120972,603.754333 886.354126,602.136353 
	C897.066589,594.375000 909.246582,592.480652 922.118286,592.965576 
	C937.233459,593.535095 946.114868,602.338196 945.460205,619.000122 
	C930.597107,619.000122 915.647217,618.337341 900.791809,619.236572 
	C891.123352,619.821838 882.241882,623.997742 876.005249,632.092285 
	C865.987305,645.094299 867.872314,666.447327 882.433289,677.063354 
M1031.039551,613.866821 
	C1037.660400,597.671692 1051.306519,594.338989 1066.580200,594.924133 
	C1066.580200,586.132446 1066.580200,577.922607 1066.580200,569.689636 
	C1044.296021,572.042786 1044.296021,572.042786 1027.999023,584.799194 
	C1027.999023,581.213989 1028.272705,577.926208 1027.867920,574.724121 
	C1027.699463,573.390625 1026.125977,571.209839 1025.121826,571.170105 
	C1017.534363,570.869751 1009.929626,571.006042 1002.249634,571.006042 
	C1002.249634,609.231873 1002.249634,646.930237 1002.249634,685.000000 
	C1009.281555,685.000000 1016.084045,684.736328 1022.854126,685.090759 
	C1027.529297,685.335571 1029.205322,684.074280 1029.119385,679.065308 
	C1028.813477,661.258484 1028.890503,643.441833 1029.090210,625.631958 
	C1029.131104,621.975037 1030.328491,618.331116 1031.039551,613.866821 
M1216.002441,662.769043 
	C1213.308960,673.367249 1217.989014,681.532471 1228.315674,685.148132 
	C1237.470337,688.353455 1246.958130,682.804016 1249.832153,674.222595 
	C1253.171387,664.251953 1248.372559,653.947998 1239.446045,650.999634 
	C1230.963623,648.197937 1220.945557,650.226379 1216.002441,662.769043 
z"/>
<path fill="#65BE6C" opacity="1.000000" stroke="none" 
	d="
M584.608398,807.722168 
	C569.242676,812.908813 554.403259,818.575806 539.149719,822.717651 
	C524.681152,826.646301 509.796478,829.066162 495.063568,831.992310 
	C467.458252,837.475281 439.479034,837.741760 411.546112,836.798401 
	C396.662231,836.295715 381.764954,834.251404 367.026245,831.933167 
	C352.205231,829.601990 337.301514,827.003845 322.926605,822.827332 
	C304.301758,817.415955 285.886200,811.019592 267.884705,803.791504 
	C242.897583,793.758606 219.339050,780.711426 197.479141,764.974792 
	C182.982727,754.539001 169.096466,743.206909 155.408432,731.714600 
	C146.782043,724.471985 138.428497,716.716675 131.013382,708.261047 
	C118.562752,694.063232 105.961693,679.811890 95.257477,664.316467 
	C82.820068,646.312012 71.380432,627.452332 61.270599,608.045532 
	C46.656925,579.992981 36.169243,550.136597 29.326645,519.240234 
	C25.548552,502.181000 22.672234,484.777161 21.255587,467.376740 
	C19.495781,445.761383 18.746531,423.965149 19.307396,402.292267 
	C19.716806,386.471832 22.761839,370.698181 24.966980,354.950623 
	C28.288248,331.232483 34.913834,308.339203 42.964069,285.837463 
	C53.206081,257.209320 66.590828,230.136185 82.951118,204.498444 
	C95.344376,185.077301 109.256355,166.887253 124.643021,149.718781 
	C145.231186,126.746460 167.780838,106.005280 193.493439,89.012497 
	C210.952820,77.474068 228.752594,66.244034 247.298523,56.604530 
	C275.511505,41.940437 305.480347,31.374655 336.531006,24.382082 
	C350.865723,21.153925 365.538696,19.435345 380.049225,16.978811 
	C404.565277,12.828424 429.338196,13.286022 453.960205,14.273797 
	C477.671753,15.225047 501.115936,19.293718 524.370972,24.540237 
	C561.243530,32.858986 595.909424,46.700573 629.004456,64.608467 
	C649.333252,75.608452 668.918579,87.952026 686.453674,103.099907 
	C701.837646,116.389473 717.465393,129.586563 731.366638,144.348862 
	C744.945984,158.769272 756.954468,174.764267 768.786621,190.710556 
	C783.679749,210.782120 795.331299,232.894730 805.714478,255.561691 
	C818.058716,282.509705 827.312256,310.536743 833.126892,339.692749 
	C836.950134,358.863159 840.429382,378.046509 840.977844,397.627655 
	C841.452209,414.558655 842.687195,431.553436 841.754517,448.418762 
	C840.371765,473.423248 836.921021,498.268463 830.521606,522.804932 
	C824.158081,522.198975 817.835693,521.146790 811.505920,521.100586 
	C802.201843,521.032715 792.742493,520.752197 783.616760,522.222534 
	C764.916260,525.235657 748.255371,533.447815 734.861633,546.860291 
	C719.180725,562.563049 710.477112,581.576599 708.752869,604.170349 
	C707.436157,621.424316 710.344238,637.575684 717.596130,652.806274 
	C724.030640,666.320374 733.778381,677.548096 746.313110,686.092468 
	C746.960205,686.533569 747.474670,687.169128 749.003967,688.615723 
	C734.056946,703.522339 720.011108,719.002747 704.394287,732.690857 
	C688.768066,746.387024 672.091492,759.051453 654.933044,770.790955 
	C633.119873,785.715332 609.258789,797.144775 584.608398,807.722168 
M386.016815,351.699677 
	C385.298035,356.895111 384.741333,362.119141 383.831177,367.280853 
	C380.625610,385.460907 377.171600,403.597809 374.055054,421.792725 
	C371.185791,438.544006 368.770233,455.373077 365.895844,472.123444 
	C363.108032,488.369324 359.657227,504.506317 357.102844,520.786133 
	C353.928497,541.016785 348.313721,560.369690 338.272430,578.278809 
	C328.517212,595.677673 314.357239,608.179321 295.442841,614.715027 
	C283.185211,618.950562 270.336578,620.084778 257.572754,617.837708 
	C248.082657,616.166870 239.070053,612.893433 231.532990,606.155151 
	C219.016510,594.965210 213.766373,580.332581 213.318298,564.475708 
	C212.906082,549.887634 214.541702,535.150757 216.364548,520.616028 
	C218.213013,505.877167 221.472961,491.318848 223.971695,476.657074 
	C226.472565,461.982758 228.733643,447.267609 231.214722,432.589813 
	C234.073227,415.679169 237.065216,398.791168 239.985275,381.890900 
	C242.961411,364.666168 245.995361,347.450867 248.837173,330.203918 
	C249.592987,325.616882 249.736481,320.928986 250.166031,316.233704 
	C224.237518,316.233704 199.281921,316.233704 174.295319,316.233704 
	C173.829498,318.187775 173.308350,319.915344 173.014374,321.680756 
	C170.919586,334.260681 168.901306,346.853424 166.799850,359.432220 
	C164.566269,372.801819 162.270416,386.161041 159.996933,399.523987 
	C157.886688,411.927307 155.767578,424.329071 153.656967,436.732330 
	C151.435867,449.784851 149.227219,462.839447 147.000229,475.890961 
	C144.827606,488.623749 142.452087,501.325378 140.508026,514.092834 
	C138.460968,527.536682 136.114670,540.995728 135.219635,554.535400 
	C134.479431,565.733093 135.444427,577.069580 136.042465,588.323853 
	C137.038940,607.076538 142.176270,624.664490 151.495438,641.034668 
	C160.865097,657.493530 173.866760,670.337097 190.696548,678.775940 
	C207.222473,687.062500 224.892471,691.069763 243.534103,692.369995 
	C258.185883,693.391968 272.644989,692.804688 286.911377,690.680481 
	C306.362549,687.784302 324.973419,681.705078 342.125793,671.513428 
	C360.899414,660.358521 376.900024,646.298767 390.065430,628.884094 
	C399.814026,615.988953 408.134521,602.231628 413.808441,587.149963 
	C419.143127,572.969971 424.016357,558.532227 427.782196,543.871338 
	C431.147919,530.767944 432.691895,517.199158 435.100281,503.846710 
	C438.027985,487.615021 441.155823,471.418243 443.944977,455.163086 
	C446.821045,438.401337 449.255157,421.563751 452.137268,404.803101 
	C455.265381,386.612244 458.814301,368.493713 461.946777,350.303558 
	C465.472229,329.831635 468.437866,309.257874 472.324005,288.857330 
	C473.312927,283.665802 471.126831,284.000732 467.887756,284.000824 
	C445.557648,284.001526 423.227539,284.000122 400.897430,284.010712 
	C400.085083,284.011108 399.272797,284.129578 398.027679,284.226868 
	C396.009064,295.880249 394.054688,307.459473 391.985931,319.018250 
	C390.086334,329.631805 388.063477,340.223236 386.016815,351.699677 
M478.002075,350.504028 
	C476.000824,362.436554 474.012787,374.371307 471.994843,386.301025 
	C469.540771,400.809113 467.073669,415.315002 464.589386,429.817963 
	C462.410156,442.540222 460.155365,455.249664 458.014893,467.978394 
	C455.847717,480.865967 453.817139,493.776489 451.658752,506.665588 
	C449.148682,521.655029 446.572510,536.633484 444.010681,551.614197 
	C441.807129,564.499390 439.568573,577.378662 437.372772,590.265198 
	C435.230652,602.836426 433.140350,615.416382 430.995422,627.987122 
	C428.823517,640.716125 426.547272,653.427612 424.445160,666.167969 
	C423.336243,672.888855 422.501251,679.654968 421.458740,686.990540 
	C446.962219,686.990540 471.410187,687.021057 495.857178,686.885010 
	C496.894653,686.879272 498.505188,685.513367 498.837524,684.461548 
	C499.567322,682.151611 499.610565,679.630554 500.000641,677.206482 
	C502.079590,664.286987 504.096100,651.356812 506.292175,638.457153 
	C509.116943,621.864441 512.187622,605.312927 514.906006,588.703369 
	C515.355103,585.959351 516.223450,584.933594 518.918091,584.969360 
	C525.747620,585.060120 532.580322,585.079407 539.409790,584.984253 
	C566.187317,584.611145 593.223267,587.320068 619.550720,580.787048 
	C633.724854,577.269836 647.981812,572.899353 661.102112,566.617798 
	C678.161804,558.450317 693.610657,547.274414 705.389343,532.003662 
	C711.879028,523.590088 718.592224,515.188232 723.815308,505.992004 
	C734.585388,487.029419 740.212402,466.321320 743.156738,444.679443 
	C745.493164,427.506348 745.644348,410.556396 741.927673,393.681519 
	C735.362976,363.875610 718.156067,342.334229 690.732788,328.932281 
	C671.768494,319.664337 651.296692,316.496307 630.652344,316.211731 
	C583.345703,315.559631 536.023804,316.051056 488.708466,315.923279 
	C484.698181,315.912445 483.402863,317.108368 482.876312,321.119843 
	C481.622772,330.669983 479.683258,340.130035 478.002075,350.504028 
M486.010254,193.988693 
	C486.995605,193.110153 488.561432,192.393250 488.859406,191.323273 
	C489.819183,187.877182 490.862305,184.297958 490.843353,180.775589 
	C490.820221,176.470886 492.761780,175.828201 496.362518,175.941864 
	C502.813324,176.145462 509.275146,175.999268 516.112915,175.999268 
	C515.751709,174.516296 515.604797,173.571121 515.292847,172.683990 
	C511.229889,161.130356 507.101898,149.599472 503.071350,138.034607 
	C493.026764,109.213631 483.035767,80.373962 472.964417,51.562366 
	C472.520813,50.293293 471.495636,49.227528 470.741333,48.067070 
	C469.712097,48.957058 468.371490,49.658379 467.700623,50.765526 
	C458.719482,65.587067 449.842316,80.471588 440.918701,95.328049 
	C425.758575,120.567314 410.571686,145.790527 395.449554,171.052521 
	C394.658356,172.374252 394.365448,173.994247 393.610626,176.124176 
	C401.664215,176.124176 408.611633,176.124176 416.167664,176.124176 
	C415.340149,182.228119 414.570038,187.908600 413.744629,193.997040 
	C438.162903,193.997040 461.630035,193.997040 486.010254,193.988693 
M470.391052,247.000000 
	C449.923340,247.000046 429.455414,246.962921 408.988281,247.071854 
	C407.380646,247.080383 404.571350,247.826157 404.367249,248.704758 
	C402.920166,254.933777 402.007263,261.286896 400.886353,267.820190 
	C426.286072,267.820190 450.872040,267.820190 475.921265,267.820190 
	C476.641602,263.579224 477.291809,259.418365 478.063202,255.280136 
	C479.606903,246.998886 479.634247,247.003983 470.391052,247.000000 
M472.487274,211.025314 
	C451.756958,211.025314 431.026642,211.025314 410.280396,211.025314 
	C409.357971,217.862579 408.513458,224.122284 407.739716,229.857300 
	C408.586914,230.589981 408.712372,230.793671 408.838470,230.794083 
	C432.440491,230.869095 456.042572,230.953186 479.644470,230.915085 
	C480.722015,230.913345 482.610229,229.950531 482.745331,229.190765 
	C483.787811,223.328690 484.490723,217.406204 485.364197,211.025345 
	C480.738525,211.025345 477.109253,211.025345 472.487274,211.025314 
z"/>
<path fill="#444444" opacity="1.000000" stroke="none" 
	d="
M1167.000000,578.522339 
	C1167.000000,562.749023 1167.115234,547.417419 1166.920166,532.089844 
	C1166.870361,528.180969 1167.949829,526.706238 1172.000244,526.921265 
	C1177.816040,527.229980 1183.677368,527.273438 1189.486938,526.911560 
	C1193.964233,526.632690 1195.103516,528.228760 1195.089355,532.577454 
	C1194.943970,577.567444 1195.000000,622.558105 1195.000000,667.548584 
	C1195.000000,672.047607 1194.913696,676.548950 1195.032104,681.044861 
	C1195.102051,683.706421 1194.293823,685.076172 1191.368286,685.033569 
	C1184.074951,684.927368 1176.779175,684.998535 1169.013916,684.998535 
	C1169.013916,680.273315 1169.013916,675.897156 1169.013916,671.076599 
	C1144.487793,695.373962 1105.633667,687.094482 1088.480713,668.009766 
	C1069.038208,646.377380 1068.246216,605.053711 1093.506592,582.691772 
	C1110.241089,567.877441 1148.054077,563.493469 1166.715942,582.980896 
	C1166.829224,581.379456 1166.914673,580.172485 1167.000000,578.522339 
M1166.995483,618.772522 
	C1165.426758,611.725159 1162.016602,605.832275 1156.548584,601.005859 
	C1144.468994,590.343567 1126.470703,590.514771 1115.147583,599.425598 
	C1102.499390,609.379150 1099.648315,622.863220 1103.104736,637.841187 
	C1107.444458,656.646057 1126.873901,666.550110 1144.555786,661.261902 
	C1162.346802,655.941101 1171.167114,636.617798 1166.995483,618.772522 
z"/>
<path fill="#444444" opacity="1.000000" stroke="none" 
	d="
M848.245850,649.745850 
	C851.868347,654.053467 855.240295,658.109314 858.873779,662.479797 
	C851.601746,672.030334 840.323853,679.229614 827.214294,682.765930 
	C817.862061,685.288635 807.861389,687.167053 798.271118,686.722290 
	C767.852966,685.311462 742.977234,672.576416 729.498962,644.419556 
	C716.383301,617.020264 718.542297,589.186951 736.580627,564.375305 
	C748.969482,547.334473 766.684448,537.667114 788.037903,534.897583 
	C807.099976,532.425171 825.286133,534.362000 842.014282,544.135254 
	C848.589600,547.976807 854.359192,553.197266 861.173462,558.296997 
	C854.280640,564.725769 848.204224,570.393066 842.126282,576.061768 
	C815.535583,549.479126 778.316223,556.645508 761.520447,577.028137 
	C745.309631,596.701050 745.331482,627.206238 764.390564,646.649719 
	C782.569214,665.194824 818.471252,669.410156 842.716248,642.959045 
	C844.493469,645.159058 846.244385,647.326538 848.245850,649.745850 
z"/>
<path fill="#444444" opacity="1.000000" stroke="none" 
	d="
M882.068848,677.010254 
	C867.872314,666.447327 865.987305,645.094299 876.005249,632.092285 
	C882.241882,623.997742 891.123352,619.821838 900.791809,619.236572 
	C915.647217,618.337341 930.597107,619.000122 945.460205,619.000122 
	C946.114868,602.338196 937.233459,593.535095 922.118286,592.965576 
	C909.246582,592.480652 897.066589,594.375000 886.354126,602.136353 
	C884.120972,603.754333 883.026978,602.920227 881.885742,600.649536 
	C879.191772,595.289124 876.206116,590.075378 873.060181,584.290710 
	C879.370667,578.941589 886.815674,575.607788 894.593994,573.053955 
	C906.895325,569.015198 919.747742,569.148682 932.318726,570.199341 
	C953.931763,572.005676 970.803040,585.927673 971.829651,608.586304 
	C972.926697,632.800293 972.716553,657.075500 972.851746,681.325256 
	C972.858582,682.543213 970.782471,684.763977 969.581421,684.831543 
	C963.270203,685.186340 956.926880,684.918579 950.597778,685.033447 
	C947.637329,685.087097 946.861450,683.642029 946.973938,681.012817 
	C947.092773,678.233459 947.000549,675.444946 947.000549,672.299805 
	C938.535461,682.135071 927.656189,685.390137 915.671448,685.988586 
	C903.646118,686.588989 892.251526,684.733643 882.068848,677.010254 
M933.435364,662.105713 
	C944.746643,656.309082 947.965942,647.153809 945.454468,637.002563 
	C933.157593,637.002563 921.072021,636.646362 909.021240,637.140015 
	C902.111938,637.423035 897.602356,642.596619 896.954590,648.511841 
	C896.039429,656.869751 900.086304,661.370850 906.761475,664.059204 
	C915.750977,667.679688 924.305725,665.704895 933.435364,662.105713 
z"/>
<path fill="#444444" opacity="1.000000" stroke="none" 
	d="
M1031.016113,614.274048 
	C1030.328491,618.331116 1029.131104,621.975037 1029.090210,625.631958 
	C1028.890503,643.441833 1028.813477,661.258484 1029.119385,679.065308 
	C1029.205322,684.074280 1027.529297,685.335571 1022.854126,685.090759 
	C1016.084045,684.736328 1009.281555,685.000000 1002.249634,685.000000 
	C1002.249634,646.930237 1002.249634,609.231873 1002.249634,571.006042 
	C1009.929626,571.006042 1017.534363,570.869751 1025.121826,571.170105 
	C1026.125977,571.209839 1027.699463,573.390625 1027.867920,574.724121 
	C1028.272705,577.926208 1027.999023,581.213989 1027.999023,584.799194 
	C1044.296021,572.042786 1044.296021,572.042786 1066.580200,569.689636 
	C1066.580200,577.922607 1066.580200,586.132446 1066.580200,594.924133 
	C1051.306519,594.338989 1037.660400,597.671692 1031.016113,614.274048 
z"/>
<path fill="#444444" opacity="1.000000" stroke="none" 
	d="
M1216.018311,662.361572 
	C1220.945557,650.226379 1230.963623,648.197937 1239.446045,650.999634 
	C1248.372559,653.947998 1253.171387,664.251953 1249.832153,674.222595 
	C1246.958130,682.804016 1237.470337,688.353455 1228.315674,685.148132 
	C1217.989014,681.532471 1213.308960,673.367249 1216.018311,662.361572 
z"/>
<path fill="#FFFFFF" opacity="1.000000" stroke="none" 
	d="
M386.055847,351.262054 
	C388.063477,340.223236 390.086334,329.631805 391.985931,319.018250 
	C394.054688,307.459473 396.009064,295.880249 398.027679,284.226868 
	C399.272797,284.129578 400.085083,284.011108 400.897430,284.010712 
	C423.227539,284.000122 445.557648,284.001526 467.887756,284.000824 
	C471.126831,284.000732 473.312927,283.665802 472.324005,288.857330 
	C468.437866,309.257874 465.472229,329.831635 461.946777,350.303558 
	C458.814301,368.493713 455.265381,386.612244 452.137268,404.803101 
	C449.255157,421.563751 446.821045,438.401337 443.944977,455.163086 
	C441.155823,471.418243 438.027985,487.615021 435.100281,503.846710 
	C432.691895,517.199158 431.147919,530.767944 427.782196,543.871338 
	C424.016357,558.532227 419.143127,572.969971 413.808441,587.149963 
	C408.134521,602.231628 399.814026,615.988953 390.065430,628.884094 
	C376.900024,646.298767 360.899414,660.358521 342.125793,671.513428 
	C324.973419,681.705078 306.362549,687.784302 286.911377,690.680481 
	C272.644989,692.804688 258.185883,693.391968 243.534103,692.369995 
	C224.892471,691.069763 207.222473,687.062500 190.696548,678.775940 
	C173.866760,670.337097 160.865097,657.493530 151.495438,641.034668 
	C142.176270,624.664490 137.038940,607.076538 136.042465,588.323853 
	C135.444427,577.069580 134.479431,565.733093 135.219635,554.535400 
	C136.114670,540.995728 138.460968,527.536682 140.508026,514.092834 
	C142.452087,501.325378 144.827606,488.623749 147.000229,475.890961 
	C149.227219,462.839447 151.435867,449.784851 153.656967,436.732330 
	C155.767578,424.329071 157.886688,411.927307 159.996933,399.523987 
	C162.270416,386.161041 164.566269,372.801819 166.799850,359.432220 
	C168.901306,346.853424 170.919586,334.260681 173.014374,321.680756 
	C173.308350,319.915344 173.829498,318.187775 174.295319,316.233704 
	C199.281921,316.233704 224.237518,316.233704 250.166031,316.233704 
	C249.736481,320.928986 249.592987,325.616882 248.837173,330.203918 
	C245.995361,347.450867 242.961411,364.666168 239.985275,381.890900 
	C237.065216,398.791168 234.073227,415.679169 231.214722,432.589813 
	C228.733643,447.267609 226.472565,461.982758 223.971695,476.657074 
	C221.472961,491.318848 218.213013,505.877167 216.364548,520.616028 
	C214.541702,535.150757 212.906082,549.887634 213.318298,564.475708 
	C213.766373,580.332581 219.016510,594.965210 231.532990,606.155151 
	C239.070053,612.893433 248.082657,616.166870 257.572754,617.837708 
	C270.336578,620.084778 283.185211,618.950562 295.442841,614.715027 
	C314.357239,608.179321 328.517212,595.677673 338.272430,578.278809 
	C348.313721,560.369690 353.928497,541.016785 357.102844,520.786133 
	C359.657227,504.506317 363.108032,488.369324 365.895844,472.123444 
	C368.770233,455.373077 371.185791,438.544006 374.055054,421.792725 
	C377.171600,403.597809 380.625610,385.460907 383.831177,367.280853 
	C384.741333,362.119141 385.298035,356.895111 386.055847,351.262054 
z"/>
<path fill="#FFFFFF" opacity="1.000000" stroke="none" 
	d="
M478.011475,350.065247 
	C479.683258,340.130035 481.622772,330.669983 482.876312,321.119843 
	C483.402863,317.108368 484.698181,315.912445 488.708466,315.923279 
	C536.023804,316.051056 583.345703,315.559631 630.652344,316.211731 
	C651.296692,316.496307 671.768494,319.664337 690.732788,328.932281 
	C718.156067,342.334229 735.362976,363.875610 741.927673,393.681519 
	C745.644348,410.556396 745.493164,427.506348 743.156738,444.679443 
	C740.212402,466.321320 734.585388,487.029419 723.815308,505.992004 
	C718.592224,515.188232 711.879028,523.590088 705.389343,532.003662 
	C693.610657,547.274414 678.161804,558.450317 661.102112,566.617798 
	C647.981812,572.899353 633.724854,577.269836 619.550720,580.787048 
	C593.223267,587.320068 566.187317,584.611145 539.409790,584.984253 
	C532.580322,585.079407 525.747620,585.060120 518.918091,584.969360 
	C516.223450,584.933594 515.355103,585.959351 514.906006,588.703369 
	C512.187622,605.312927 509.116943,621.864441 506.292175,638.457153 
	C504.096100,651.356812 502.079590,664.286987 500.000641,677.206482 
	C499.610565,679.630554 499.567322,682.151611 498.837524,684.461548 
	C498.505188,685.513367 496.894653,686.879272 495.857178,686.885010 
	C471.410187,687.021057 446.962219,686.990540 421.458740,686.990540 
	C422.501251,679.654968 423.336243,672.888855 424.445160,666.167969 
	C426.547272,653.427612 428.823517,640.716125 430.995422,627.987122 
	C433.140350,615.416382 435.230652,602.836426 437.372772,590.265198 
	C439.568573,577.378662 441.807129,564.499390 444.010681,551.614197 
	C446.572510,536.633484 449.148682,521.655029 451.658752,506.665588 
	C453.817139,493.776489 455.847717,480.865967 458.014893,467.978394 
	C460.155365,455.249664 462.410156,442.540222 464.589386,429.817963 
	C467.073669,415.315002 469.540771,400.809113 471.994843,386.301025 
	C474.012787,374.371307 476.000824,362.436554 478.011475,350.065247 
M610.952454,510.538666 
	C635.677979,504.238068 652.986694,489.592133 660.924622,465.052643 
	C663.416138,457.350159 664.425232,449.164978 666.064392,441.190765 
	C668.280151,430.412018 665.750916,420.348724 660.504272,411.077942 
	C651.056458,394.384003 634.833191,389.011047 617.280273,388.227570 
	C595.830872,387.270142 574.305725,388.065277 552.814392,387.934570 
	C549.326721,387.913361 548.384094,389.380127 547.933167,392.518585 
	C546.608215,401.741333 544.978149,410.920624 543.436401,420.111725 
	C541.300964,432.842072 539.148071,445.569427 536.982483,458.294647 
	C534.762451,471.340515 532.486450,484.376984 530.300537,497.428528 
	C529.454407,502.479889 528.788452,507.561401 527.985657,513.000366 
	C540.827148,513.000366 552.974670,513.193787 565.113464,512.951233 
	C580.151611,512.650818 595.298218,514.484558 610.952454,510.538666 
z"/>
<path fill="#FFFFFF" opacity="1.000000" stroke="none" 
	d="
M485.553711,193.992859 
	C461.630035,193.997040 438.162903,193.997040 413.744629,193.997040 
	C414.570038,187.908600 415.340149,182.228119 416.167664,176.124176 
	C408.611633,176.124176 401.664215,176.124176 393.610626,176.124176 
	C394.365448,173.994247 394.658356,172.374252 395.449554,171.052521 
	C410.571686,145.790527 425.758575,120.567314 440.918701,95.328049 
	C449.842316,80.471588 458.719482,65.587067 467.700623,50.765526 
	C468.371490,49.658379 469.712097,48.957058 470.741333,48.067062 
	C471.495636,49.227528 472.520813,50.293293 472.964417,51.562366 
	C483.035767,80.373962 493.026764,109.213631 503.071350,138.034607 
	C507.101898,149.599472 511.229889,161.130356 515.292847,172.683990 
	C515.604797,173.571121 515.751709,174.516296 516.112915,175.999268 
	C509.275146,175.999268 502.813324,176.145462 496.362518,175.941864 
	C492.761780,175.828201 490.820221,176.470886 490.843353,180.775589 
	C490.862305,184.297958 489.819183,187.877182 488.859406,191.323273 
	C488.561432,192.393250 486.995605,193.110153 485.553711,193.992859 
z"/>
<path fill="#FFFFFF" opacity="1.000000" stroke="none" 
	d="
M470.874023,247.000000 
	C479.634247,247.003983 479.606903,246.998886 478.063202,255.280136 
	C477.291809,259.418365 476.641602,263.579224 475.921265,267.820190 
	C450.872040,267.820190 426.286072,267.820190 400.886353,267.820190 
	C402.007263,261.286896 402.920166,254.933777 404.367249,248.704758 
	C404.571350,247.826157 407.380646,247.080383 408.988281,247.071854 
	C429.455414,246.962921 449.923340,247.000046 470.874023,247.000000 
z"/>
<path fill="#FFFFFF" opacity="1.000000" stroke="none" 
	d="
M472.983643,211.025330 
	C477.109253,211.025345 480.738525,211.025345 485.364197,211.025345 
	C484.490723,217.406204 483.787811,223.328690 482.745331,229.190765 
	C482.610229,229.950531 480.722015,230.913345 479.644470,230.915085 
	C456.042572,230.953186 432.440491,230.869095 408.838470,230.794083 
	C408.712372,230.793671 408.586914,230.589981 407.739716,229.857300 
	C408.513458,224.122284 409.357971,217.862579 410.280396,211.025314 
	C431.026642,211.025314 451.756958,211.025314 472.983643,211.025330 
z"/>
<path fill="#FFFFFF" opacity="1.000000" stroke="none" 
	d="
M1166.998047,619.207642 
	C1171.167114,636.617798 1162.346802,655.941101 1144.555786,661.261902 
	C1126.873901,666.550110 1107.444458,656.646057 1103.104736,637.841187 
	C1099.648315,622.863220 1102.499390,609.379150 1115.147583,599.425598 
	C1126.470703,590.514771 1144.468994,590.343567 1156.548584,601.005859 
	C1162.016602,605.832275 1165.426758,611.725159 1166.998047,619.207642 
z"/>
<path fill="#FFFFFF" opacity="1.000000" stroke="none" 
	d="
M933.149292,662.373596 
	C924.305725,665.704895 915.750977,667.679688 906.761475,664.059204 
	C900.086304,661.370850 896.039429,656.869751 896.954590,648.511841 
	C897.602356,642.596619 902.111938,637.423035 909.021240,637.140015 
	C921.072021,636.646362 933.157593,637.002563 945.454468,637.002563 
	C947.965942,647.153809 944.746643,656.309082 933.149292,662.373596 
z"/>
<path fill="#65BE6C" opacity="1.000000" stroke="none" 
	d="
M610.571167,510.724304 
	C595.298218,514.484558 580.151611,512.650818 565.113464,512.951233 
	C552.974670,513.193787 540.827148,513.000366 527.985657,513.000366 
	C528.788452,507.561401 529.454407,502.479889 530.300537,497.428528 
	C532.486450,484.376984 534.762451,471.340515 536.982483,458.294647 
	C539.148071,445.569427 541.300964,432.842072 543.436401,420.111725 
	C544.978149,410.920624 546.608215,401.741333 547.933167,392.518585 
	C548.384094,389.380127 549.326721,387.913361 552.814392,387.934570 
	C574.305725,388.065277 595.830872,387.270142 617.280273,388.227570 
	C634.833191,389.011047 651.056458,394.384003 660.504272,411.077942 
	C665.750916,420.348724 668.280151,430.412018 666.064392,441.190765 
	C664.425232,449.164978 663.416138,457.350159 660.924622,465.052643 
	C652.986694,489.592133 635.677979,504.238068 610.571167,510.724304 
z"/>
</svg>